<svg xmlns="http://www.w3.org/2000/svg" width="144" height="144" fill="none"><mask id="a" width="120" height="86" x="12" y="29" maskUnits="userSpaceOnUse" style="mask-type:luminance"><path fill="#fff" d="M132 29H12v86h120z"></path></mask><g mask="url(#a)"><mask id="b" width="1191" height="886" x="-529" y="-372" maskUnits="userSpaceOnUse" style="mask-type:luminance"><path fill="#fff" d="M-528.746-371.242H661.51v884.761H-528.746z"></path></mask><g mask="url(#b)"><path fill="#000" d="M20.764 53.816v-16.17h34.577c4.5 0 8.134 3.646 8.134 8.064 0 1.672-.519 3.217-1.383 4.503a8.15 8.15 0 0 1-6.75 3.603zm34.577-24.747H12.11v33.324h43.62c.303-.042.605-.042.866-.042.172 0 .303-.043.432-.043a16.8 16.8 0 0 0 7.616-2.744c1.558-1.03 2.943-2.274 3.982-3.775.821-.944 1.427-1.973 1.947-3.088a16.5 16.5 0 0 0 1.558-6.991c0-9.18-7.53-16.641-16.79-16.641"></path></g><mask id="c" width="1191" height="886" x="-529" y="-372" maskUnits="userSpaceOnUse" style="mask-type:luminance"><path fill="#fff" d="M-528.746-371.242H661.51v884.761H-528.746z"></path></mask><g mask="url(#c)"><path fill="#000" d="M70.573 56.604c-.649-.3-1.254-.557-1.948-.815a28.2 28.2 0 0 0-6.534-1.672 8.15 8.15 0 0 1-6.75 3.602H42.27c-2.249 1.245-4.283 2.788-6.144 4.589h-.043c0 .043-.043.043-.043.085h19.69c.301-.042.605-.042.864-.042.303-.043.607-.043.909-.043.346 0 .736 0 1.082.043a21.7 21.7 0 0 1 6.058 1.116c8.786 2.96 15.103 11.194 15.103 20.888 0 12.178-9.954 22.086-22.243 22.086-11.208 0-20.511-8.277-22.026-18.956h-8.742c1.56 15.482 14.758 27.535 30.768 27.535 17.05 0 30.897-13.725 30.897-30.665 0-12.268-7.312-22.861-17.828-27.75"></path></g><mask id="d" width="1191" height="886" x="-529" y="-372" maskUnits="userSpaceOnUse" style="mask-type:luminance"><path fill="#fff" d="M-528.746-371.242H661.51v884.761H-528.746z"></path></mask><g mask="url(#d)"><path fill="#000" d="M11.759 29.06h11.786v82.037H11.76z"></path></g><mask id="e" width="1191" height="886" x="-529" y="-372" maskUnits="userSpaceOnUse" style="mask-type:luminance"><path fill="#fff" d="M-528.746-371.242H661.51v884.761H-528.746z"></path></mask><g mask="url(#e)"><path fill="#000" d="M57.504 62.308c-.303 0-.605 0-.909.042-.259 0-.562 0-.866.043h-31.2v-.085z"></path></g><mask id="f" width="1191" height="886" x="-529" y="-372" maskUnits="userSpaceOnUse" style="mask-type:luminance"><path fill="#fff" d="M-528.746-371.242H661.51v884.761H-528.746z"></path></mask><g mask="url(#f)"><path fill="#000" d="M58.586 62.308v.043c-.346-.043-.736-.043-1.081-.043z"></path></g><mask id="g" width="1191" height="886" x="-529" y="-372" maskUnits="userSpaceOnUse" style="mask-type:luminance"><path fill="#fff" d="M-528.746-371.242H661.51v884.761H-528.746z"></path></mask><g mask="url(#g)"><path fill="#000" d="M105.322 82.724c0 11.75-4.673 22.775-12.983 30.924H78.621l4.5-3.389c8.613-6.648 13.546-16.684 13.546-27.535 0-11.322-5.582-21.959-14.93-28.565l-2.293-1.63.605-2.743c.26-1.245.347-2.575.347-4.075 0-2.274-.347-4.547-1.081-6.691-.91-2.574-2.338-5.061-4.199-7.12-.259-.343-1.428-1.544-2.683-2.831h11.38a27.4 27.4 0 0 1 3.68 7.162c.173.472.302.945.433 1.416.735 2.66 1.125 5.319 1.125 8.064q0 1.608-.13 3.088c5.365 4.245 9.563 9.693 12.376 15.74a42 42 0 0 1 3.202 9.993c.562 2.659.823 5.405.823 8.192"></path></g><mask id="h" width="1191" height="886" x="-529" y="-372" maskUnits="userSpaceOnUse" style="mask-type:luminance"><path fill="#fff" d="M-528.746-371.242H661.51v884.761H-528.746z"></path></mask><g mask="url(#h)"><path fill="#000" d="M132.195 29.069v8.578H83.382a25.3 25.3 0 0 0-5.02-8.578z"></path></g><mask id="i" width="1191" height="886" x="-529" y="-372" maskUnits="userSpaceOnUse" style="mask-type:luminance"><path fill="#fff" d="M-528.746-371.242H661.51v884.761H-528.746z"></path></mask><g mask="url(#i)"><path fill="#000" d="M132.198 54.807v4.557c-2.336-.915-4.702-1.652-7.201-2.065-.58-.103-1.562-.206-2.603-.236 0 .015-1.057.03-1.221.044h-.029c-.03 0-.06.015-.105.015l-.699.089c-.149.014-.297.044-.446.073-.03 0-.045 0-.06.015-.059 0-.119.015-.163.015-.372.088-.759.191-1.131.295-.179.044-.357.118-.536.162l-.059.03c-.015.014-.045.014-.075.029-.342.133-.684.265-1.011.413-1.339.59-2.128 1.047-3.452 2.05-2.157 1.622-3.794 3.48-5.326 5.765a31.6 31.6 0 0 0-2.872 5.427 28 28 0 0 0-.64 1.74c-.015.03-.029.103-.059.177v.015c-.015 0-.015.014-.015.029v.015s0 .015-.015.03v.014c0 .015-.015.03-.015.044-.03.103-.044.148-.059.148-1.057 2.507-9.046 1.872-8.585.132.357-1.312.848-2.61 1.413-3.848 2.44-5.486 6.443-10.22 11.769-13.124 7.052-3.834 15.458-3.937 23.195-2.05"></path></g></g></svg>