<svg xmlns="http://www.w3.org/2000/svg" width="512" height="512" fill="none"><g clip-path="url(#a)"><mask id="b" width="2650" height="2058" x="-1069" y="-773" maskUnits="userSpaceOnUse" style="mask-type:luminance"><path fill="#fff" d="M-1068.16-772.792h2648.32V1284.79h-2648.32z"/></mask><g mask="url(#b)"><path fill="#000" d="M154.5 215.712v-37.603h76.933c10.011 0 18.098 8.477 18.098 18.752 0 3.889-1.155 7.482-3.078 10.473-3.178 4.986-8.763 8.378-15.02 8.378zm76.933-57.551h-96.19v77.499h97.054c.676-.1 1.348-.1 1.927-.1.384 0 .675-.099.963-.099 6.257-.7 11.938-2.891 16.946-6.382 3.466-2.394 6.548-5.288 8.859-8.779 1.827-2.195 3.175-4.588 4.333-7.181 2.215-4.99 3.466-10.473 3.466-16.258 0-21.348-16.754-38.7-37.358-38.7"/></g><mask id="c" width="2650" height="2058" x="-1069" y="-773" maskUnits="userSpaceOnUse" style="mask-type:luminance"><path fill="#fff" d="M-1068.16-772.792h2648.32V1284.79h-2648.32z"/></mask><g mask="url(#c)"><path fill="#000" d="M265.324 222.195a59 59 0 0 0-4.334-1.896c-4.621-1.893-9.53-3.189-14.539-3.889-3.178 4.986-8.763 8.378-15.019 8.378h-29.079c-5.005 2.894-9.53 6.485-13.672 10.672h-.096c0 .099-.096.099-.096.199h43.81c.672-.1 1.347-.1 1.923-.1.676-.099 1.351-.099 2.023-.099.771 0 1.639 0 2.407.099a46.4 46.4 0 0 1 13.48 2.596c19.548 6.883 33.604 26.032 33.604 48.577 0 28.322-22.147 51.364-49.491 51.364-24.937 0-45.637-19.249-49.007-44.084h-19.452c3.469 36.004 32.836 64.035 68.459 64.035 37.937 0 68.747-31.92 68.747-71.315 0-28.529-16.27-53.165-39.668-64.537"/></g><mask id="d" width="2650" height="2058" x="-1069" y="-773" maskUnits="userSpaceOnUse" style="mask-type:luminance"><path fill="#fff" d="M-1068.16-772.792h2648.32V1284.79h-2648.32z"/></mask><g mask="url(#d)"><path fill="#000" d="M134.463 158.142h26.225v190.782h-26.225z"/></g><mask id="e" width="2650" height="2058" x="-1069" y="-773" maskUnits="userSpaceOnUse" style="mask-type:luminance"><path fill="#fff" d="M-1068.16-772.792h2648.32V1284.79h-2648.32z"/></mask><g mask="url(#e)"><path fill="#000" d="M236.246 235.461c-.675 0-1.347 0-2.022.099-.576 0-1.252 0-1.927.1h-69.419v-.199z"/></g><mask id="f" width="2650" height="2058" x="-1069" y="-773" maskUnits="userSpaceOnUse" style="mask-type:luminance"><path fill="#fff" d="M-1068.16-772.792h2648.32V1284.79h-2648.32z"/></mask><g mask="url(#f)"><path fill="#000" d="M238.653 235.461v.099c-.771-.099-1.639-.099-2.407-.099z"/></g><mask id="g" width="2650" height="2058" x="-1069" y="-773" maskUnits="userSpaceOnUse" style="mask-type:luminance"><path fill="#fff" d="M-1068.16-772.792h2648.32V1284.79h-2648.32z"/></mask><g mask="url(#g)"><path fill="#000" d="M342.641 282.939c0 27.328-10.398 52.966-28.887 71.916h-30.522l10.014-7.881c19.161-15.459 30.138-38.799 30.138-64.035 0-26.33-12.421-51.066-33.22-66.429l-5.101-3.79 1.347-6.382c.576-2.894.772-5.987.772-9.475 0-5.288-.772-10.576-2.407-15.562-2.023-5.984-5.201-11.769-9.342-16.557-.576-.799-3.178-3.59-5.969-6.584h25.322c3.466 5.086 6.26 10.672 8.186 16.656.384 1.098.672 2.198.964 3.292 1.635 6.187 2.502 12.37 2.502 18.755a85 85 0 0 1-.291 7.181c11.94 9.873 21.279 22.541 27.539 36.605a101 101 0 0 1 7.124 23.24c1.251 6.183 1.831 12.568 1.831 19.05"/></g><mask id="h" width="2650" height="2058" x="-1069" y="-773" maskUnits="userSpaceOnUse" style="mask-type:luminance"><path fill="#fff" d="M-1068.16-772.792h2648.32V1284.79h-2648.32z"/></mask><g mask="url(#h)"><path fill="#000" d="M402.433 158.16v19.948H293.826a59.4 59.4 0 0 0-11.17-19.948z"/></g><mask id="i" width="2650" height="2058" x="-1069" y="-773" maskUnits="userSpaceOnUse" style="mask-type:luminance"><path fill="#fff" d="M-1068.16-772.792h2648.32V1284.79h-2648.32z"/></mask><g mask="url(#i)"><path fill="#000" d="M402.44 218.016v10.596c-5.197-2.126-10.461-3.841-16.022-4.801-1.291-.24-3.476-.48-5.794-.549 0 .035-2.35.069-2.714.103h-.066c-.067 0-.133.035-.232.035-.497.068-1.026.137-1.556.205-.331.035-.662.103-.993.172-.066 0-.099 0-.132.034-.133 0-.265.034-.365.034-.827.206-1.688.446-2.516.686-.397.103-.794.275-1.191.377l-.133.069c-.033.034-.099.034-.165.069-.762.308-1.523.617-2.251.96-2.98 1.372-4.734 2.435-7.68 4.767-4.8 3.772-8.442 8.093-11.852 13.408a75 75 0 0 0-6.389 12.62 66 66 0 0 0-1.423 4.047c-.033.068-.066.24-.133.411v.034c-.033 0-.033.035-.033.069v.034s0 .035-.033.069v.034c0 .034-.033.069-.033.103-.066.24-.099.343-.132.343-2.351 5.83-20.127 4.355-19.101.309.794-3.052 1.887-6.07 3.145-8.951 5.429-12.757 14.334-23.765 26.185-30.521 15.691-8.916 34.395-9.156 51.609-4.766"/></g><mask id="j" width="2650" height="2058" x="-1069" y="-773" maskUnits="userSpaceOnUse" style="mask-type:luminance"><path fill="#fff" d="M-1068.16-772.792h2648.32V1284.79h-2648.32z"/></mask><g mask="url(#j)"><path fill="#000" d="m483.2 228.258 4.171 19.406 16.194-10.668-10.298 16.779L512 258.093l-18.733 4.321 10.298 16.779-16.194-10.668-4.171 19.406-4.171-19.406-16.195 10.668 10.299-16.779-18.734-4.321 18.734-4.318-10.299-16.779 16.195 10.668z"/></g><mask id="k" width="2650" height="2058" x="-1069" y="-773" maskUnits="userSpaceOnUse" style="mask-type:luminance"><path fill="#fff" d="M-1068.16-772.792h2648.32V1284.79h-2648.32z"/></mask><g mask="url(#k)"><path fill="#000" d="M463.242 357.826c-5.337-2.284-8.068-8.141-6.095-13.089 1.97-4.949 7.439-7.301 12.215-5.264l-1.678 4.218c-2.81-1.204-5.932-.052-6.978 2.568-1.043 2.62.844 5.912 4.217 7.353 3.367 1.437 7.369-.576 8.935-4.506 1.566-3.927.099-8.282-3.267-9.723l-9.157-3.916 1.678-4.214 24.415 10.438-1.679 4.215-6.352-2.716a4.4 4.4 0 0 1-1.507-1.07l-1.681-1.824-.427.418 1.324 1.437a4.66 4.66 0 0 1 1.215 3.066 14 14 0 0 1-1 5.411c-2.493 6.259-8.842 9.479-14.178 7.198"/></g><mask id="l" width="2650" height="2058" x="-1069" y="-773" maskUnits="userSpaceOnUse" style="mask-type:luminance"><path fill="#fff" d="M-1068.16-772.792h2648.32V1284.79h-2648.32z"/></mask><g mask="url(#l)"><path fill="#000" d="M446.321 391.389c2.847.865 6.184-.5 8.048-3.525 1.747-2.839 1.668-6.293.023-8.614a4.5 4.5 0 0 1-.467-.827l-.563-1.33-.539.246.562 1.321a1.58 1.58 0 0 1-.102 1.43zm-5.194 2.078 10.153-16.484c-2.847-.868-6.184.5-8.048 3.522-1.181 1.924-1.529 4.122-1.119 6.063l-2.797 4.537c-2.003-3.635-1.887-8.594.672-12.747 3.512-5.706 10.309-7.723 15.175-4.503 4.87 3.214 5.965 10.449 2.45 16.156-3.172 5.151-9.018 7.297-13.705 5.298a9.3 9.3 0 0 1-2.781-1.842"/></g><mask id="m" width="2650" height="2058" x="-1069" y="-773" maskUnits="userSpaceOnUse" style="mask-type:luminance"><path fill="#fff" d="M-1068.16-772.792h2648.32V1284.79h-2648.32z"/></mask><g mask="url(#m)"><path fill="#000" d="m413.514 442.705.07-1.286-.583-.034-.073 1.286a1.55 1.55 0 0 1-.483 1.046l-2.519 2.335-2.202-2.551 3.281-3.035-10.997-12.744 3.277-3.041 11.001 12.743.817-.758 2.205 2.544-.824.762 1.099 1.276c2.029 2.345 1.466 6.285-1.252 8.806l-2.052 1.896-2.566-2.973 2.05-1.9c.907-.836 1.148-2.088.542-2.791l-.42-.487a1.56 1.56 0 0 1-.371-1.094"/></g><mask id="n" width="2650" height="2058" x="-1069" y="-773" maskUnits="userSpaceOnUse" style="mask-type:luminance"><path fill="#fff" d="M-1068.16-772.792h2648.32V1284.79h-2648.32z"/></mask><g mask="url(#n)"><path fill="#000" d="m376.696 471.161-10.984-17.088 3.668-2.531 5.488 8.546c2.023 3.144 6.433 3.789 9.849 1.43 3.416-2.353 4.548-6.818 2.529-9.962-2.026-3.145-5.512-4.424-7.789-2.854s-2.758 4.97-1.073 7.593l-3.668 2.527c-2.863-4.454-1.695-10.473 2.605-13.443 4.304-2.966 10.388-1.33 13.59 3.649 3.201 4.983 1.383 12.061-4.059 15.813a12.7 12.7 0 0 1-4.929 2.071 4.3 4.3 0 0 1-3.145-.638l-1.615-1.063-.318.515 2.059 1.354c.52.34.966.792 1.307 1.32l.149.237z"/></g><mask id="o" width="2650" height="2058" x="-1069" y="-773" maskUnits="userSpaceOnUse" style="mask-type:luminance"><path fill="#fff" d="M-1068.16-772.792h2648.32V1284.79h-2648.32z"/></mask><g mask="url(#o)"><path fill="#000" d="m335.274 481.888-4.396-10.426 4.038-1.824 4.407 10.453c1.218 2.884 4.237 4.303 6.743 3.168 3.76-1.701 5.627-5.888 4.168-9.351l-3.97-9.407 4.036-1.828 7.935 18.813-4.036 1.828-.106-.257a4.6 4.6 0 0 1-.37-1.855l.013-2.524-.586-.004-.013 1.986a4.6 4.6 0 0 1-1.136 3.031 13.1 13.1 0 0 1-4.432 3.248c-4.734 2.119-10.229-.158-12.295-5.051"/></g><mask id="p" width="2650" height="2058" x="-1069" y="-773" maskUnits="userSpaceOnUse" style="mask-type:luminance"><path fill="#fff" d="M-1068.16-772.792h2648.32V1284.79h-2648.32z"/></mask><g mask="url(#p)"><path fill="#000" d="m299.917 486.707-5.045 1.279c.977-4.061 4.366-7.562 8.981-8.735 6.346-1.611 12.606 1.797 13.98 7.61 1.374 5.809-2.662 11.824-9.008 13.433-4.614 1.172-9.186-.316-11.864-3.447l5.048-1.279c1.642 1.022 3.768 1.392 5.903.85 3.985-1.011 6.515-4.804 5.644-8.477-.867-3.669-4.8-5.823-8.786-4.815-2.138.542-3.853 1.887-4.853 3.581"/></g><mask id="q" width="2650" height="2058" x="-1069" y="-773" maskUnits="userSpaceOnUse" style="mask-type:luminance"><path fill="#fff" d="M-1068.16-772.792h2648.32V1284.79h-2648.32z"/></mask><g mask="url(#q)"><path fill="#000" d="m256.668 507.148 11.222-28.329 3.562 1.516-1.933 4.88 11.487 20.099-4.29.326-8.167-14.29a4.7 4.7 0 0 1-.603-1.993l-.052-.765-.586.048.053.762a4.7 4.7 0 0 1-.318 2.061l-6.085 15.36z"/></g><mask id="r" width="2650" height="2058" x="-1069" y="-773" maskUnits="userSpaceOnUse" style="mask-type:luminance"><path fill="#fff" d="M-1068.16-772.792h2648.32V1284.79h-2648.32z"/></mask><g mask="url(#r)"><path fill="#000" d="m190.994 511.05 15.036-29.314 4.303.95L195.301 512z"/></g><mask id="s" width="2650" height="2058" x="-1069" y="-773" maskUnits="userSpaceOnUse" style="mask-type:luminance"><path fill="#fff" d="M-1068.16-772.792h2648.32V1284.79h-2648.32z"/></mask><g mask="url(#s)"><path fill="#000" d="M128.006 461.027c2.761-5.247 8.67-7.428 13.205-4.87 4.532 2.559 6.204 8.44 3.734 13.135l-3.863-2.181c1.456-2.761.685-6.098-1.712-7.452-2.4-1.355-5.76.233-7.504 3.549-1.742 3.313-.239 7.647 3.36 9.678 3.601 2.033 7.931.994 9.676-2.322l4.734-9.002 3.863 2.181-12.626 24.005-3.863-2.181 3.284-6.245a4.6 4.6 0 0 1 1.188-1.437l1.93-1.532-.354-.484-1.516 1.207a4.32 4.32 0 0 1-3.075.919 12.7 12.7 0 0 1-5.082-1.608c-5.73-3.237-8.14-10.113-5.379-15.36"/></g><mask id="t" width="2650" height="2058" x="-1069" y="-773" maskUnits="userSpaceOnUse" style="mask-type:luminance"><path fill="#fff" d="M-1068.16-772.792h2648.32V1284.79h-2648.32z"/></mask><g mask="url(#t)"><path fill="#000" d="M97.562 439.956c-1.139 2.836-.182 6.423 2.519 8.665 2.539 2.113 5.863 2.398 8.27.954q.402-.243.844-.395l1.337-.435-.178-.58-1.331.436a1.43 1.43 0 0 1-1.361-.264zm-1.44-5.58 14.741 12.232c1.136-2.839.182-6.426-2.519-8.665-1.718-1.427-3.794-2.02-5.7-1.808l-4.056-3.371c3.705-1.67 8.452-1.022 12.163 2.061 5.101 4.236 6.313 11.454 2.698 16.125-3.612 4.667-10.676 5.024-15.778.789-4.601-3.824-6.034-10.076-3.615-14.695.265-.494.567-.974.92-1.43q.53-.681 1.146-1.238"/></g><mask id="u" width="2650" height="2058" x="-1069" y="-773" maskUnits="userSpaceOnUse" style="mask-type:luminance"><path fill="#fff" d="M-1068.16-772.792h2648.32V1284.79h-2648.32z"/></mask><g mask="url(#u)"><path fill="#000" d="m56.609 381.748-2.913-4.455c4.012-.466 8.362 1.609 11.027 5.683 3.668 5.603 2.76 12.866-2.02 16.22s-11.622 1.53-15.287-4.074c-2.665-4.074-2.91-9.026-1.006-12.716l2.913 4.455c-.358 1.955.046 4.139 1.28 6.025 2.302 3.519 6.615 4.654 9.634 2.534s3.602-6.687 1.298-10.202c-1.235-1.889-3.046-3.09-4.926-3.47"/></g><mask id="v" width="2650" height="2058" x="-1069" y="-773" maskUnits="userSpaceOnUse" style="mask-type:luminance"><path fill="#fff" d="M-1068.16-772.792h2648.32V1284.79h-2648.32z"/></mask><g mask="url(#v)"><path fill="#000" d="M33.737 346.065c-3.327 1.546-4.658 5.939-2.98 9.815s5.737 5.761 9.061 4.218c3.327-1.547 4.658-5.947 2.98-9.819-1.682-3.875-5.738-5.761-9.061-4.214m-1.804-4.16c5.267-2.448 11.702.569 14.377 6.739 2.674 6.172.576 13.161-4.688 15.61s-11.699-.569-14.377-6.739c-2.675-6.172-.576-13.158 4.688-15.61"/></g><mask id="w" width="2650" height="2058" x="-1069" y="-773" maskUnits="userSpaceOnUse" style="mask-type:luminance"><path fill="#fff" d="M-1068.16-772.792h2648.32V1284.79h-2648.32z"/></mask><g mask="url(#w)"><path fill="#000" d="m19.775 302.951 10.633-2.788 1.079 4.417-10.663 2.798c-2.943.771-4.787 3.625-4.115 6.368 1.006 4.119 4.688 6.704 8.223 5.778l9.594-2.517 1.079 4.417-19.194 5.034-1.079-4.42.262-.065a4.2 4.2 0 0 1 1.824-.075l2.403.425.096-.594-1.884-.339a4.35 4.35 0 0 1-2.704-1.653 13.8 13.8 0 0 1-2.364-5.058c-1.248-5.178 1.814-10.418 6.81-11.728"/></g><mask id="x" width="2650" height="2058" x="-1069" y="-773" maskUnits="userSpaceOnUse" style="mask-type:luminance"><path fill="#fff" d="M-1068.16-772.792h2648.32V1284.79h-2648.32z"/></mask><g mask="url(#x)"><path fill="#000" d="m7.697 280.101.963.809.37-.47-.966-.813a1.52 1.52 0 0 1-.536-1.021l-.358-3.478 3.284-.363.467 4.537 16.413-1.808.463 4.534-16.416 1.807.116 1.132-3.28.36-.116-1.132-1.642.182c-3.023.333-5.784-2.445-6.168-6.204L0 275.341l3.83-.422.291 2.836c.126 1.252.967 2.185 1.87 2.089l.63-.073c.384-.041.771.079 1.076.33"/></g><mask id="y" width="2650" height="2058" x="-1069" y="-773" maskUnits="userSpaceOnUse" style="mask-type:luminance"><path fill="#fff" d="M-1068.16-772.792h2648.32V1284.79h-2648.32z"/></mask><g mask="url(#y)"><path fill="#000" d="m26.185 255.908-19.796.343-.073-4.558 19.8-.343zm-20.895.357-4.403.079-.07-4.558 4.397-.079z"/></g><mask id="z" width="2650" height="2058" x="-1069" y="-773" maskUnits="userSpaceOnUse" style="mask-type:luminance"><path fill="#fff" d="M-1068.16-772.792h2648.32V1284.79h-2648.32z"/></mask><g mask="url(#z)"><path fill="#000" d="m3.698 205.882 26.162 3.758-.603 4.517-9.812-1.41c-3.611-.518-6.995 2.473-7.56 6.684-.564 4.208 1.91 8.042 5.52 8.56 3.61.521 6.843-1.334 7.22-4.143.378-2.805-1.76-5.432-4.77-5.864l.603-4.517c5.118.738 8.69 5.631 7.985 10.93-.712 5.301-5.923 8.933-11.643 8.113-5.72-.826-9.626-6.923-8.733-13.628.259-1.92.884-3.676 1.775-5.195a4.47 4.47 0 0 1 2.545-2.013l1.841-.549-.162-.583-2.34.696a4.25 4.25 0 0 1-1.825.141l-6.81-.981z"/></g><mask id="A" width="2650" height="2058" x="-1069" y="-773" maskUnits="userSpaceOnUse" style="mask-type:luminance"><path fill="#fff" d="M-1068.16-772.792h2648.32V1284.79h-2648.32z"/></mask><g mask="url(#A)"><path fill="#000" d="m24.433 183.159 4.015-12.743c-2.966-.1-5.872 2.088-6.945 5.497-1.006 3.207-.096 6.53 2.056 8.35.242.206.46.429.652.683l.867 1.142.464-.381-.867-1.135a1.55 1.55 0 0 1-.242-1.409zm8.547-16.104-5.859 18.601c2.966.103 5.87-2.089 6.945-5.497.682-2.168.487-4.39-.377-6.163l1.612-5.12c2.817 3.001 3.903 7.836 2.43 12.517-2.03 6.44-8.127 10.154-13.62 8.299-5.488-1.855-8.298-8.58-6.269-15.02 1.83-5.81 6.972-9.4 12-8.68a9.3 9.3 0 0 1 3.138 1.063"/></g><mask id="B" width="2650" height="2058" x="-1069" y="-773" maskUnits="userSpaceOnUse" style="mask-type:luminance"><path fill="#fff" d="M-1068.16-772.792h2648.32V1284.79h-2648.32z"/></mask><g mask="url(#B)"><path fill="#000" d="m47.767 129.108 9.687 5.349-2.073 4.023-9.712-5.364c-2.678-1.481-5.896-.651-7.187 1.845-1.927 3.752-.88 8.231 2.334 10.011l8.742 4.825-2.072 4.026-17.479-9.654 2.07-4.026.237.13c.543.302 1.02.717 1.4 1.218l1.497 1.989.464-.374-1.179-1.564a4.63 4.63 0 0 1-.924-3.107c.13-1.807.63-3.648 1.536-5.394 2.44-4.702 8.11-6.444 12.66-3.933"/></g><mask id="C" width="2650" height="2058" x="-1069" y="-773" maskUnits="userSpaceOnUse" style="mask-type:luminance"><path fill="#fff" d="M-1068.16-772.792h2648.32V1284.79h-2648.32z"/></mask><g mask="url(#C)"><path fill="#000" d="m70.06 109.496 3.106 2.356-1.629 2.298c-2.152 3.045-5.889 4.005-8.335 2.143l-9.32-7.075-.648.919-2.665-2.023.656-.919-5.327-4.047 2.602-3.672 5.327 4.043 2.602-3.676 2.661 2.019-2 2.826a1.45 1.45 0 0 1-.96.6l-1.224.199.086.6 1.228-.195c.387-.062.778.038 1.09.274l8.494 6.454c.734.556 1.913.189 2.631-.826z"/></g><mask id="D" width="2650" height="2058" x="-1069" y="-773" maskUnits="userSpaceOnUse" style="mask-type:luminance"><path fill="#fff" d="M-1068.16-772.792h2648.32V1284.79h-2648.32z"/></mask><g mask="url(#D)"><path fill="#000" d="m94.924 43.686 12.606 30.51-3.416 2.878-12.603-30.51z"/></g><mask id="E" width="2650" height="2058" x="-1069" y="-773" maskUnits="userSpaceOnUse" style="mask-type:luminance"><path fill="#fff" d="M-1068.16-772.792h2648.32V1284.79h-2648.32z"/></mask><g mask="url(#E)"><path fill="#000" d="M172.098 24.165c2.214 5.521.149 11.663-4.622 13.72-4.77 2.059-10.242-.284-12.228-5.222l4.065-1.752c1.165 2.904 4.161 4.379 6.684 3.292 2.526-1.09 3.436-4.801 2.036-8.285-1.401-3.488-5.608-4.99-9.392-3.361-3.787 1.632-5.724 5.785-4.323 9.27l3.803 9.471-4.062 1.752-10.146-25.256 4.065-1.753 2.642 6.57c.235.59.348 1.225.334 1.863l-.056 2.52.583.018.046-1.983a4.67 4.67 0 0 1 1.235-3.062 13.1 13.1 0 0 1 4.399-3.093c6.032-2.6 12.719-.226 14.937 5.291"/></g><mask id="F" width="2650" height="2058" x="-1069" y="-773" maskUnits="userSpaceOnUse" style="mask-type:luminance"><path fill="#fff" d="M-1068.16-772.792h2648.32V1284.79h-2648.32z"/></mask><g mask="url(#F)"><path fill="#000" d="M206.993 12.85c-1.42-2.696-4.711-4.181-8.087-3.41-3.182.727-5.482 3.224-5.906 6.067a4.4 4.4 0 0 1-.235.926l-.507 1.35.547.224.503-1.348c.179-.47.573-.823 1.056-.93zm5.091 2.341-18.432 4.201c1.417 2.696 4.711 4.18 8.091 3.406 2.148-.487 3.896-1.787 4.932-3.454l5.075-1.159c-1.069 4.033-4.538 7.452-9.18 8.512-6.382 1.454-12.559-2.102-13.801-7.943-1.241-5.84 2.927-11.755 9.309-13.21 5.757-1.313 11.351 1.458 13.298 6.307a9.9 9.9 0 0 1 .708 3.34"/></g><mask id="G" width="2650" height="2058" x="-1069" y="-773" maskUnits="userSpaceOnUse" style="mask-type:luminance"><path fill="#fff" d="M-1068.16-772.792h2648.32V1284.79h-2648.32z"/></mask><g mask="url(#G)"><path fill="#000" d="m283.973 2.123-15.364 26.193-3.29-2.075 2.648-4.513L259.635 0l4.29.374 5.922 15.445c.255.659.355 1.365.295 2.068l-.06.762.583.054.063-.764a4.7 4.7 0 0 1 .622-1.986l8.333-14.204z"/></g><mask id="H" width="2650" height="2058" x="-1069" y="-773" maskUnits="userSpaceOnUse" style="mask-type:luminance"><path fill="#fff" d="M-1068.16-772.792h2648.32V1284.79h-2648.32z"/></mask><g mask="url(#H)"><path fill="#000" d="M316.808 20.046c.907-3.66-1.575-7.49-5.551-8.546-3.976-1.06-7.932 1.046-8.842 4.708-.911 3.66 1.575 7.487 5.551 8.546 3.976 1.06 7.935-1.05 8.842-4.708m4.267 1.135c-1.44 5.796-7.739 9.125-14.069 7.441-6.329-1.687-10.295-7.753-8.858-13.549 1.44-5.799 7.739-9.125 14.069-7.438 6.329 1.684 10.298 7.754 8.858 13.546"/></g><mask id="I" width="2650" height="2058" x="-1069" y="-773" maskUnits="userSpaceOnUse" style="mask-type:luminance"><path fill="#fff" d="M-1068.16-772.792h2648.32V1284.79h-2648.32z"/></mask><g mask="url(#I)"><path fill="#000" d="m361.343 27.206-8.189 18.683-4.006-1.886.112-.254a4.55 4.55 0 0 1 1.086-1.523l1.821-1.673-.394-.456-1.43 1.316a4.28 4.28 0 0 1-2.936 1.153c-1.745-.017-3.552-.422-5.29-1.245-4.685-2.219-6.727-7.973-4.595-12.832l4.535-10.354 4.009 1.883-4.549 10.384c-1.257 2.867-.254 6.139 2.235 7.308 3.731 1.756 7.985.39 9.491-3.049l4.092-9.341z"/></g><mask id="J" width="2650" height="2058" x="-1069" y="-773" maskUnits="userSpaceOnUse" style="mask-type:luminance"><path fill="#fff" d="M-1068.16-772.792h2648.32V1284.79h-2648.32z"/></mask><g mask="url(#J)"><path fill="#000" d="m392.116 57.651-3.644-2.558c1.705-2.607 1.251-6.005-1.01-7.596-3.4-2.38-7.809-1.777-9.855 1.351l-5.555 8.49-3.641-2.557 11.106-16.986 3.645 2.559-.149.23a4.45 4.45 0 0 1-1.318 1.313l-2.065 1.334.307.514 1.626-1.046a4.27 4.27 0 0 1 3.148-.61 12.8 12.8 0 0 1 4.909 2.105c4.274 3.001 5.393 9.026 2.496 13.457"/></g><mask id="K" width="2650" height="2058" x="-1069" y="-773" maskUnits="userSpaceOnUse" style="mask-type:luminance"><path fill="#fff" d="M-1068.16-772.792h2648.32V1284.79h-2648.32z"/></mask><g mask="url(#K)"><path fill="#000" d="M416.376 86.958c-2.404 2.633-7.571 1.615-11.55-2.278s-5.257-9.18-2.861-11.814c.067-.072.133-.133.199-.198l3.218 3.148a1 1 0 0 0-.215.181c-.937 1.03.096 3.618 2.304 5.779 2.211 2.164 4.763 3.08 5.7 2.05.94-1.032-.678-3.408-2.301-5.781-1.602-2.342-3.29-4.328-3.684-6.478-.344-1.859-.027-3.567 1.036-4.736 2.294-2.52 7.204-1.581 10.961 2.095 3.757 3.673 4.942 8.694 2.645 11.214l-3.198-3.13c.834-.916-.103-3.238-2.092-5.183s-4.277-2.78-5.111-1.865c-.835.919.506 2.87 2.088 5.182 1.623 2.373 3.288 4.214 3.811 6.34.529 2.15.255 4.146-.95 5.474"/></g><mask id="L" width="2650" height="2058" x="-1069" y="-773" maskUnits="userSpaceOnUse" style="mask-type:luminance"><path fill="#fff" d="M-1068.16-772.792h2648.32V1284.79h-2648.32z"/></mask><g mask="url(#L)"><path fill="#000" d="M443.796 111.914c1.771-2.466 1.695-6.186-.394-9.043-1.969-2.685-5.121-3.806-7.796-3.018a3.9 3.9 0 0 1-.907.168l-1.4.089.036.607 1.391-.085c.49-.031.963.195 1.261.6zm.08 5.775-11.401-15.593c-1.771 2.462-1.695 6.18.397 9.04 1.331 1.817 3.198 2.918 5.098 3.196l3.138 4.29c-3.985.682-8.435-1.149-11.308-5.076-3.946-5.397-3.413-12.702 1.192-16.313 4.601-3.614 11.533-2.167 15.482 3.231 3.559 4.869 3.47 11.296.034 15.157a9.3 9.3 0 0 1-1.229 1.152 9.5 9.5 0 0 1-1.403.916"/></g><mask id="M" width="2650" height="2058" x="-1069" y="-773" maskUnits="userSpaceOnUse" style="mask-type:luminance"><path fill="#fff" d="M-1068.16-772.792h2648.32V1284.79h-2648.32z"/></mask><g mask="url(#M)"><path fill="#000" d="m453.381 144.647-3.373 1.923-1.327-2.496c-1.755-3.313-1.023-7.222 1.638-8.741l18.803-10.714 2.122 3.996-18.799 10.713c-.798.456-.974 1.718-.388 2.819z"/></g><mask id="N" width="2650" height="2058" x="-1069" y="-773" maskUnits="userSpaceOnUse" style="mask-type:luminance"><path fill="#fff" d="M-1068.16-772.792h2648.32V1284.79h-2648.32z"/></mask><g mask="url(#N)"><path fill="#000" d="m477.502 158.146-1.149-.497-.225.562 1.149.497c.357.155.642.453.787.823l1.282 3.244-3.056 1.297-1.668-4.225-15.281 6.481-1.669-4.221 15.281-6.478-.417-1.056 3.056-1.297.417 1.057 1.529-.652c2.811-1.19 6.214.679 7.597 4.173l1.04 2.641-3.565 1.512-1.04-2.64c-.463-1.163-1.519-1.821-2.364-1.461l-.582.243a1.4 1.4 0 0 1-1.122-.003"/></g></g><defs><clipPath id="a"><path fill="#fff" d="M0 0h512v512H0z"/></clipPath></defs></svg>