<svg width="220" height="61" viewBox="0 0 220 61" fill="none" xmlns="http://www.w3.org/2000/svg">
<g clip-path="url(#clip0_124_121)">
<mask id="mask0_124_121" style="mask-type:luminance" maskUnits="userSpaceOnUse" x="-207" y="-216" width="653" height="492">
<path d="M-206.305 -215.785H445.909V275.452H-206.305V-215.785Z" fill="white"/>
</mask>
<g mask="url(#mask0_124_121)">
<path d="M89.4698 29.4723H85.6046C79.7478 29.4723 75.5271 29.0204 72.9656 28.0911C70.4048 27.1627 69.1248 25.5907 69.1248 23.376C69.1248 21.6141 69.9784 20.2567 71.662 19.3037C73.3218 18.3515 75.5744 17.8758 78.3724 17.8758C85.771 17.8758 89.4698 21.2334 89.4698 27.9249V29.4723ZM82.9966 40.1403C81.2413 42.5932 78.6806 43.8082 75.2662 43.8082C73.5346 43.8082 72.1837 43.3792 71.1638 42.4983C70.1439 41.5936 69.6466 40.3073 69.6466 38.6167C69.6466 35.9501 70.9739 33.8541 73.63 32.378C76.2617 30.8772 80.2695 30.1387 85.6046 30.1387C85.6046 34.3781 84.7274 37.712 82.9966 40.1403ZM101.611 12.9938H100.97C102.559 20.0184 103.365 25.9239 103.365 30.711C103.365 33.4022 103.175 35.6643 102.82 37.545C102.441 39.4264 101.966 40.7838 101.35 41.6173C100.757 42.427 100.188 42.9985 99.69 43.3317C99.1682 43.665 98.6228 43.8082 98.0774 43.8082C96.6548 43.8082 95.943 42.8315 95.943 40.9026V27.2814C95.943 22.2568 94.5913 18.5185 91.8651 16.0419C89.1617 13.589 85.3674 12.3511 80.5068 12.3511C76.0962 12.3511 72.6338 13.232 70.073 14.9939C68.8876 15.8036 67.9859 16.7329 67.3696 17.8038C66.9432 18.5185 66.635 19.2808 66.4451 20.0897C66.3024 20.7569 66.2315 21.4234 66.2315 22.1619C66.2315 24.7098 67.3932 26.5675 69.7412 27.7341C72.0883 28.9008 75.6453 29.6156 80.435 29.8776C69.1485 31.0917 63.5044 34.8301 63.5044 41.0933C63.5044 43.5462 64.4061 45.5464 66.1605 47.0471C67.915 48.5708 70.2157 49.333 73.0137 49.333C75.4081 49.333 77.5188 48.7853 79.2969 47.6661C81.0995 46.5706 82.4748 45.0699 83.4466 43.1885C84.4192 41.3078 85.1065 39.3077 85.581 37.1405C86.0318 34.9733 86.2446 32.64 86.2446 30.1387H89.4698V42.8315C89.4698 44.9987 90.0389 46.6181 91.1533 47.7136C92.2678 48.7853 93.6905 49.333 95.4221 49.333C101.136 49.333 104.005 43.3555 104.005 31.425C104.005 26.4954 103.223 20.3517 101.611 12.9938Z" fill="black"/>
</g>
<mask id="mask1_124_121" style="mask-type:luminance" maskUnits="userSpaceOnUse" x="-207" y="-216" width="653" height="492">
<path d="M-206.305 -215.785H445.909V275.452H-206.305V-215.785Z" fill="white"/>
</mask>
<g mask="url(#mask1_124_121)">
<path d="M139.029 16.47C136.657 13.7314 133.219 12.3502 128.738 12.3502C124.683 12.3502 121.41 13.5169 118.92 15.8273C116.43 18.137 114.842 21.2563 114.202 25.21V12.9937H107.752V48.6895H114.202V29.2103C114.202 25.5907 115.292 22.7808 117.474 20.8281C119.632 18.8517 122.43 17.875 125.821 17.875C129.093 17.875 131.63 18.8272 133.456 20.7569C135.258 22.6858 136.16 25.4957 136.16 29.2103V48.6895H142.633V27.924C142.633 23.0428 141.424 19.2324 139.029 16.47Z" fill="black"/>
</g>
<mask id="mask2_124_121" style="mask-type:luminance" maskUnits="userSpaceOnUse" x="-207" y="-216" width="653" height="492">
<path d="M-206.305 -215.785H445.909V275.452H-206.305V-215.785Z" fill="white"/>
</mask>
<g mask="url(#mask2_124_121)">
<path d="M177.656 40.7126C174.835 42.5695 171.278 43.4988 167.034 43.4988C162.884 43.4988 159.54 42.2846 156.979 39.9029C154.418 37.4983 153.137 34.4739 153.137 30.8543C153.137 27.1627 154.276 24.1383 156.529 21.7574C158.781 19.3757 161.746 18.1853 165.421 18.1853C168.978 18.1853 171.776 19.09 173.768 20.8765C175.783 22.6859 176.874 24.8055 177.04 27.2822H183.49C183.324 23.4244 181.616 19.971 178.368 16.9228C175.119 13.8747 170.827 12.3511 165.539 12.3511C160.157 12.3511 155.604 14.1613 151.905 17.8046C148.206 21.4479 146.356 25.7815 146.356 30.8543C146.356 35.9026 148.206 40.2361 151.905 43.8795C155.604 47.5228 160.157 49.333 165.539 49.333C170.614 49.333 174.788 47.6898 178.059 44.4272C181.332 41.1646 183.158 37.4983 183.49 33.4497H182.85C182.209 36.4258 180.478 38.8312 177.656 40.7126Z" fill="black"/>
</g>
<mask id="mask3_124_121" style="mask-type:luminance" maskUnits="userSpaceOnUse" x="-207" y="-216" width="653" height="492">
<path d="M-206.305 -215.785H445.909V275.452H-206.305V-215.785Z" fill="white"/>
</mask>
<g mask="url(#mask3_124_121)">
<path d="M213.581 12.993L202.674 38.9492H200.42L188.849 12.993H181.877L196.223 44.7834H200.278C198.784 48.2131 196.864 50.7847 194.563 52.5466C192.263 54.2848 189.299 55.1657 185.695 55.1657V61C188.706 61 191.363 60.5955 193.686 59.8096C196.01 59.0007 198.026 57.7619 199.709 56.0713C201.369 54.3806 202.815 52.5704 204.001 50.666C205.187 48.7363 206.372 46.3554 207.581 43.498L220.362 12.993H213.581Z" fill="black"/>
</g>
<mask id="mask4_124_121" style="mask-type:luminance" maskUnits="userSpaceOnUse" x="-207" y="-216" width="653" height="492">
<path d="M-206.305 -215.785H445.909V275.452H-206.305V-215.785Z" fill="white"/>
</mask>
<g mask="url(#mask4_124_121)">
<path d="M4.93479 17.0177V8.04038H23.8816C26.347 8.04038 28.3387 10.0643 28.3387 12.5172C28.3387 13.4456 28.0541 14.3036 27.5805 15.0176C26.7978 16.208 25.4224 17.0177 23.8816 17.0177H4.93479ZM23.8816 3.27783H0.192383V21.7803H24.0944C24.2607 21.7565 24.4262 21.7565 24.5689 21.7565C24.6634 21.7565 24.7352 21.7328 24.8061 21.7328C26.347 21.5658 27.746 21.0426 28.9795 20.2091C29.833 19.6377 30.592 18.9467 31.1611 18.1132C31.6111 17.5892 31.9429 17.0177 32.2283 16.3988C32.7737 15.2075 33.0819 13.8984 33.0819 12.5172C33.0819 7.4206 28.9558 3.27783 23.8816 3.27783Z" fill="black"/>
</g>
<mask id="mask5_124_121" style="mask-type:luminance" maskUnits="userSpaceOnUse" x="-207" y="-216" width="653" height="492">
<path d="M-206.305 -215.785H445.909V275.452H-206.305V-215.785Z" fill="white"/>
</mask>
<g mask="url(#mask5_124_121)">
<path d="M32.2281 18.5661C31.8726 18.3999 31.5408 18.2566 31.1609 18.1133C30.0228 17.6614 28.8137 17.3519 27.5802 17.1849C26.7976 18.3753 25.4222 19.185 23.8814 19.185H16.72C15.4874 19.876 14.3729 20.7333 13.353 21.7329H13.3294C13.3294 21.7567 13.3057 21.7567 13.3057 21.7804H24.0949C24.2604 21.7567 24.4268 21.7567 24.5686 21.7567C24.7349 21.7329 24.9012 21.7329 25.0667 21.7329C25.2567 21.7329 25.4703 21.7329 25.6594 21.7567C26.822 21.805 27.9365 22.0195 28.9792 22.3764C33.7934 24.0196 37.255 28.5914 37.255 33.9737C37.255 40.7356 31.8009 46.2366 25.0667 46.2366C18.9253 46.2366 13.8275 41.6411 12.9975 35.7119H8.20703C9.06143 44.3077 16.2937 51 25.0667 51C34.4097 51 41.9974 43.3793 41.9974 33.9737C41.9974 27.1627 37.9904 21.281 32.2281 18.5661Z" fill="black"/>
</g>
<mask id="mask6_124_121" style="mask-type:luminance" maskUnits="userSpaceOnUse" x="-207" y="-216" width="653" height="492">
<path d="M-206.305 -215.785H445.909V275.452H-206.305V-215.785Z" fill="white"/>
</mask>
<g mask="url(#mask6_124_121)">
<path d="M0 3.27299H6.45854V48.8213H0V3.27299Z" fill="black"/>
</g>
<mask id="mask7_124_121" style="mask-type:luminance" maskUnits="userSpaceOnUse" x="-207" y="-216" width="653" height="492">
<path d="M-206.305 -215.785H445.909V275.452H-206.305V-215.785Z" fill="white"/>
</mask>
<g mask="url(#mask7_124_121)">
<path d="M25.0673 21.7328C24.901 21.7328 24.7355 21.7328 24.5692 21.7565C24.4273 21.7565 24.261 21.7565 24.0947 21.7803H6.99854V21.7328H25.0673Z" fill="black"/>
</g>
<mask id="mask8_124_121" style="mask-type:luminance" maskUnits="userSpaceOnUse" x="-207" y="-216" width="653" height="492">
<path d="M-206.305 -215.785H445.909V275.452H-206.305V-215.785Z" fill="white"/>
</mask>
<g mask="url(#mask8_124_121)">
<path d="M25.6601 21.7321V21.7559C25.4701 21.7321 25.2565 21.7321 25.0674 21.7321H25.6601Z" fill="black"/>
</g>
<mask id="mask9_124_121" style="mask-type:luminance" maskUnits="userSpaceOnUse" x="-207" y="-216" width="653" height="492">
<path d="M-206.305 -215.785H445.909V275.452H-206.305V-215.785Z" fill="white"/>
</mask>
<g mask="url(#mask9_124_121)">
<path d="M51.269 33.0678C51.269 39.5922 48.7083 45.713 44.155 50.2373H36.6383L39.1044 48.3559C43.8232 44.665 46.5266 39.0928 46.5266 33.0678C46.5266 26.7816 43.4677 20.8761 38.3454 17.2082L37.0891 16.3035L37.4209 14.7798C37.5628 14.0888 37.6109 13.3503 37.6109 12.5177C37.6109 11.2552 37.4209 9.99272 37.0182 8.80229C36.52 7.37361 35.7374 5.99241 34.7175 4.84947C34.5756 4.65871 33.9348 3.99226 33.2476 3.27751H39.4835C40.3371 4.49168 41.0252 5.82539 41.4997 7.25407C41.5943 7.51607 41.6652 7.77888 41.7369 8.04005C42.1397 9.51704 42.3533 10.9932 42.3533 12.5177C42.3533 13.1129 42.3296 13.6844 42.2815 14.2321C45.2222 16.5892 47.5221 19.6136 49.0637 22.9712C49.87 24.7331 50.4627 26.5908 50.8182 28.5197C51.1264 29.9959 51.269 31.5204 51.269 33.0678Z" fill="black"/>
</g>
<mask id="mask10_124_121" style="mask-type:luminance" maskUnits="userSpaceOnUse" x="-207" y="-216" width="653" height="492">
<path d="M-206.305 -215.785H445.909V275.452H-206.305V-215.785Z" fill="white"/>
</mask>
<g mask="url(#mask10_124_121)">
<path d="M65.9946 3.2775V8.04004H39.2473C38.6538 6.27814 37.7056 4.65869 36.4966 3.2775H65.9946Z" fill="black"/>
</g>
<mask id="mask11_124_121" style="mask-type:luminance" maskUnits="userSpaceOnUse" x="-207" y="-216" width="653" height="492">
<path d="M-206.305 -215.785H445.909V275.452H-206.305V-215.785Z" fill="white"/>
</mask>
<g mask="url(#mask11_124_121)">
<path d="M50.805 27.9505C50.818 27.8997 50.8604 27.7712 50.796 27.9767C50.721 28.2182 50.8327 27.8613 50.8547 27.7958C50.9648 27.4707 51.0806 27.1481 51.2094 26.8297C51.6341 25.776 52.1616 24.7615 52.7845 23.8126C53.6177 22.5436 54.5202 21.5096 55.7015 20.609C56.4287 20.0547 56.8543 19.8025 57.588 19.4734C57.7723 19.3915 57.959 19.3162 58.1465 19.2425C58.4294 19.1312 57.8774 19.3276 58.1701 19.2319C58.2843 19.1942 58.3984 19.159 58.5125 19.1246C58.7172 19.0648 58.9242 19.0116 59.1313 18.9609C59.2202 18.9396 59.5422 18.8896 59.1199 18.9633C59.2455 18.9412 59.371 18.9158 59.4974 18.9003C59.6254 18.8847 59.7558 18.8675 59.8838 18.8487C60.5083 18.7578 59.5813 18.861 59.9531 18.8446C60.073 18.8397 60.973 18.8217 60.4716 18.8135C61.1002 18.8241 61.6986 18.888 62.0516 18.9486C63.5476 19.2032 64.9686 19.6715 66.3709 20.2479C67.35 20.6507 68.7702 20.5631 69.7216 20.121C70.5711 19.7264 70.5173 19.123 69.6711 18.775C64.5675 16.6758 58.3022 15.9365 53.2859 18.7079C50.3672 20.3208 48.1758 22.9497 46.8347 25.9896C46.5289 26.6823 46.2591 27.397 46.0659 28.1298C45.805 29.1172 50.4055 29.4627 50.805 27.9505Z" fill="black"/>
</g>
<mask id="mask12_124_121" style="mask-type:luminance" maskUnits="userSpaceOnUse" x="-207" y="-216" width="653" height="492">
<path d="M-206.305 -215.785H445.909V275.452H-206.305V-215.785Z" fill="white"/>
</mask>
<g mask="url(#mask12_124_121)">
<path d="M201.12 -0.1588L202.147 4.47438L206.136 1.92732L203.599 5.93336L208.213 6.96414L203.599 7.99573L206.136 12.0018L202.147 9.45471L201.12 14.0879L200.093 9.45471L196.105 12.0018L198.641 7.99573L194.027 6.96414L198.641 5.93336L196.105 1.92732L200.093 4.47438L201.12 -0.1588Z" fill="black"/>
</g>
</g>
<defs>
<clipPath id="clip0_124_121">
<rect width="220" height="61" fill="white"/>
</clipPath>
</defs>
</svg>
