<svg xmlns="http://www.w3.org/2000/svg" width="96" height="96" fill="none"><g clip-path="url(#a)"><mask id="b" width="498" height="386" x="-201" y="-145" maskUnits="userSpaceOnUse" style="mask-type:luminance"><path fill="#fff" d="M-200.279-144.898H296.28v385.797h-496.559z"/></mask><g mask="url(#b)"><path fill="#000" d="M28.969 40.446v-7.05h14.425c1.877 0 3.393 1.59 3.393 3.516 0 .729-.216 1.403-.577 1.963-.596.935-1.643 1.571-2.816 1.571zm14.425-10.79H25.358v14.53h18.198c.127-.018.253-.018.361-.018.072 0 .127-.019.18-.019a6.8 6.8 0 0 0 3.178-1.196c.65-.45 1.228-.992 1.661-1.647a5.7 5.7 0 0 0 .813-1.346c.415-.935.65-1.964.65-3.048 0-4.003-3.142-7.256-7.005-7.256"/></g><mask id="c" width="498" height="386" x="-201" y="-145" maskUnits="userSpaceOnUse" style="mask-type:luminance"><path fill="#fff" d="M-200.279-144.898H296.28v385.797h-496.559z"/></mask><g mask="url(#c)"><path fill="#000" d="M49.748 41.662c-.27-.13-.523-.243-.812-.356a11.3 11.3 0 0 0-2.726-.729c-.596.935-1.643 1.571-2.816 1.571H37.94a12.2 12.2 0 0 0-2.563 2.001h-.018c0 .019-.018.019-.018.037h8.214c.126-.018.253-.018.36-.018.127-.019.254-.019.38-.019.145 0 .307 0 .451.019a8.7 8.7 0 0 1 2.528.486c3.665 1.291 6.3 4.881 6.3 9.109 0 5.31-4.152 9.63-9.279 9.63-4.676 0-8.557-3.609-9.189-8.265H31.46c.65 6.75 6.157 12.006 12.836 12.006 7.113 0 12.89-5.985 12.89-13.371 0-5.35-3.05-9.969-7.438-12.101"/></g><mask id="d" width="498" height="386" x="-201" y="-145" maskUnits="userSpaceOnUse" style="mask-type:luminance"><path fill="#fff" d="M-200.279-144.898H296.28v385.797h-496.559z"/></mask><g mask="url(#d)"><path fill="#000" d="M25.212 29.652h4.917v35.771h-4.917z"/></g><mask id="e" width="498" height="386" x="-201" y="-145" maskUnits="userSpaceOnUse" style="mask-type:luminance"><path fill="#fff" d="M-200.279-144.898H296.28v385.797h-496.559z"/></mask><g mask="url(#e)"><path fill="#000" d="M44.297 44.15c-.127 0-.253 0-.38.018-.108 0-.234 0-.36.019H30.54v-.038z"/></g><mask id="f" width="498" height="386" x="-201" y="-145" maskUnits="userSpaceOnUse" style="mask-type:luminance"><path fill="#fff" d="M-200.279-144.898H296.28v385.797h-496.559z"/></mask><g mask="url(#f)"><path fill="#000" d="M44.748 44.15v.018c-.145-.019-.307-.019-.451-.019z"/></g><mask id="g" width="498" height="386" x="-201" y="-145" maskUnits="userSpaceOnUse" style="mask-type:luminance"><path fill="#fff" d="M-200.279-144.898H296.28v385.797h-496.559z"/></mask><g mask="url(#g)"><path fill="#000" d="M64.245 53.051c0 5.124-1.95 9.932-5.416 13.485h-5.723l1.877-1.478c3.593-2.899 5.651-7.275 5.651-12.007 0-4.937-2.328-9.574-6.228-12.455l-.957-.71.253-1.197c.108-.543.144-1.123.144-1.777a9.4 9.4 0 0 0-.45-2.918 9.4 9.4 0 0 0-1.752-3.104c-.108-.15-.596-.673-1.12-1.235h4.748a12.2 12.2 0 0 1 1.535 3.123c.072.206.126.413.18.618.307 1.16.47 2.319.47 3.516q0 .701-.055 1.347c2.24 1.85 3.99 4.226 5.164 6.863a19 19 0 0 1 1.336 4.358c.234 1.159.343 2.356.343 3.571"/></g><mask id="h" width="498" height="386" x="-201" y="-145" maskUnits="userSpaceOnUse" style="mask-type:luminance"><path fill="#fff" d="M-200.279-144.898H296.28v385.797h-496.559z"/></mask><g mask="url(#h)"><path fill="#000" d="M75.456 29.655v3.74H55.092a11.1 11.1 0 0 0-2.094-3.74z"/></g><mask id="i" width="498" height="386" x="-201" y="-145" maskUnits="userSpaceOnUse" style="mask-type:luminance"><path fill="#fff" d="M-200.279-144.898H296.28v385.797h-496.559z"/></mask><g mask="url(#i)"><path fill="#000" d="M75.458 40.878v1.987c-.975-.398-1.962-.72-3.005-.9a8 8 0 0 0-1.086-.103c0 .006-.44.013-.509.02h-.012c-.013 0-.025.006-.044.006l-.291.038q-.094.012-.187.032-.016-.002-.025.007c-.024 0-.05.006-.068.006a13 13 0 0 0-.471.129c-.075.02-.15.051-.224.07l-.025.014c-.006.006-.018.006-.03.012q-.216.085-.423.18c-.559.258-.888.457-1.44.894-.9.707-1.583 1.518-2.222 2.514a14 14 0 0 0-1.198 2.367c-.1.25-.186.507-.267.758-.006.013-.012.045-.025.078v.006q-.008.001-.006.013v.006q.001.002-.006.013v.007c0 .006-.006.012-.006.019q-.018.066-.025.064c-.44 1.093-3.774.817-3.582.058.15-.572.354-1.138.59-1.678 1.018-2.392 2.688-4.456 4.91-5.723 2.942-1.672 6.449-1.717 9.676-.894"/></g><mask id="j" width="498" height="386" x="-201" y="-145" maskUnits="userSpaceOnUse" style="mask-type:luminance"><path fill="#fff" d="M-200.279-144.898H296.28v385.797h-496.559z"/></mask><g mask="url(#j)"><path fill="#000" d="m90.6 42.799.782 3.638 3.037-2-1.931 3.146 3.512.81-3.512.81 1.93 3.146-3.036-2-.782 3.638-.782-3.638-3.036 2 1.93-3.146-3.512-.81 3.513-.81-1.931-3.146 3.036 2z"/></g><mask id="k" width="498" height="386" x="-201" y="-145" maskUnits="userSpaceOnUse" style="mask-type:luminance"><path fill="#fff" d="M-200.279-144.898H296.28v385.797h-496.559z"/></mask><g mask="url(#k)"><path fill="#000" d="M86.858 67.093c-1-.429-1.513-1.527-1.143-2.455s1.395-1.369 2.29-.987l-.314.791c-.527-.225-1.113-.01-1.309.482-.195.491.158 1.108.791 1.378.631.27 1.382-.108 1.675-.845.294-.736.019-1.552-.612-1.822l-1.717-.735.314-.79 4.578 1.957-.314.79-1.192-.509a.8.8 0 0 1-.282-.2l-.315-.342-.08.078.248.27c.143.154.223.36.228.574.006.333-.054.68-.188 1.015-.467 1.173-1.658 1.777-2.658 1.35"/></g><mask id="l" width="498" height="386" x="-201" y="-145" maskUnits="userSpaceOnUse" style="mask-type:luminance"><path fill="#fff" d="M-200.279-144.898H296.28v385.797h-496.559z"/></mask><g mask="url(#l)"><path fill="#000" d="M83.686 73.386c.534.162 1.16-.094 1.509-.661.328-.533.313-1.18.004-1.616a1 1 0 0 1-.087-.155l-.106-.25-.101.047.105.248a.3.3 0 0 1-.019.268zm-.974.39 1.904-3.092c-.534-.162-1.16.094-1.51.66-.22.361-.286.774-.21 1.138l-.524.85c-.375-.681-.353-1.611.126-2.39.659-1.07 1.933-1.448 2.846-.844.913.602 1.118 1.96.46 3.03-.596.965-1.692 1.367-2.57.993a1.7 1.7 0 0 1-.522-.346"/></g><mask id="m" width="498" height="386" x="-201" y="-145" maskUnits="userSpaceOnUse" style="mask-type:luminance"><path fill="#fff" d="M-200.279-144.898H296.28v385.797h-496.559z"/></mask><g mask="url(#m)"><path fill="#000" d="m77.534 83.007.013-.24-.109-.007-.014.24a.3.3 0 0 1-.09.197l-.472.438-.413-.479.615-.569-2.062-2.389.614-.57 2.063 2.389.153-.142.414.477-.155.143.206.239c.38.44.275 1.178-.234 1.651l-.385.356-.481-.558.384-.356c.17-.157.215-.392.102-.523l-.08-.092a.3.3 0 0 1-.069-.205"/></g><mask id="n" width="498" height="386" x="-201" y="-145" maskUnits="userSpaceOnUse" style="mask-type:luminance"><path fill="#fff" d="M-200.279-144.898H296.28v385.797h-496.559z"/></mask><g mask="url(#n)"><path fill="#000" d="m70.63 88.343-2.059-3.204.688-.475 1.03 1.602c.378.59 1.205.711 1.846.269.64-.441.853-1.279.474-1.868-.38-.59-1.033-.83-1.46-.535s-.518.931-.202 1.423l-.687.474c-.537-.835-.318-1.963.488-2.52.807-.556 1.948-.25 2.548.684s.26 2.261-.76 2.965c-.293.202-.609.33-.925.388a.8.8 0 0 1-.59-.12l-.303-.199-.06.097.387.254a.8.8 0 0 1 .245.247l.028.044z"/></g><mask id="o" width="498" height="386" x="-201" y="-145" maskUnits="userSpaceOnUse" style="mask-type:luminance"><path fill="#fff" d="M-200.279-144.898H296.28v385.797h-496.559z"/></mask><g mask="url(#o)"><path fill="#000" d="M62.864 90.354 62.04 88.4l.757-.342.826 1.96c.229.54.795.806 1.265.594.705-.32 1.055-1.105.781-1.754l-.744-1.764.757-.342 1.487 3.527-.756.343-.02-.048a.9.9 0 0 1-.07-.348l.003-.474h-.11l-.002.372c-.001.21-.076.414-.213.569-.223.25-.503.46-.831.609-.888.397-1.918-.03-2.306-.948"/></g><mask id="p" width="498" height="386" x="-201" y="-145" maskUnits="userSpaceOnUse" style="mask-type:luminance"><path fill="#fff" d="M-200.279-144.898H296.28v385.797h-496.559z"/></mask><g mask="url(#p)"><path fill="#000" d="m56.235 91.258-.946.24c.183-.761.819-1.418 1.684-1.638 1.19-.302 2.364.337 2.621 1.427s-.499 2.217-1.689 2.518c-.865.22-1.722-.059-2.224-.646l.946-.24a1.43 1.43 0 0 0 1.107.16c.747-.19 1.221-.9 1.058-1.59-.162-.688-.9-1.091-1.647-.902a1.47 1.47 0 0 0-.91.671"/></g><mask id="q" width="498" height="386" x="-201" y="-145" maskUnits="userSpaceOnUse" style="mask-type:luminance"><path fill="#fff" d="M-200.279-144.898H296.28v385.797h-496.559z"/></mask><g mask="url(#q)"><path fill="#000" d="m48.126 95.09 2.104-5.311.668.284-.363.915 2.154 3.769-.804.06-1.531-2.678a.9.9 0 0 1-.113-.374l-.01-.143-.11.009.01.142a.9.9 0 0 1-.06.387l-1.14 2.88z"/></g><mask id="r" width="498" height="386" x="-201" y="-145" maskUnits="userSpaceOnUse" style="mask-type:luminance"><path fill="#fff" d="M-200.279-144.898H296.28v385.797h-496.559z"/></mask><g mask="url(#r)"><path fill="#000" d="m35.812 95.822 2.819-5.496.807.178L36.619 96z"/></g><mask id="s" width="498" height="386" x="-201" y="-145" maskUnits="userSpaceOnUse" style="mask-type:luminance"><path fill="#fff" d="M-200.279-144.898H296.28v385.797h-496.559z"/></mask><g mask="url(#s)"><path fill="#000" d="M24.002 86.443c.517-.984 1.625-1.393 2.476-.913.85.48 1.163 1.582.7 2.463l-.725-.41c.273-.517.129-1.143-.32-1.397-.45-.254-1.08.044-1.408.666-.326.621-.044 1.434.63 1.814.676.382 1.488.187 1.815-.435l.887-1.688.725.41-2.368 4.5-.724-.409.616-1.17a.9.9 0 0 1 .222-.27l.362-.287-.066-.091-.284.226a.8.8 0 0 1-.577.172 2.4 2.4 0 0 1-.953-.301c-1.074-.607-1.526-1.896-1.009-2.88"/></g><mask id="t" width="498" height="386" x="-201" y="-145" maskUnits="userSpaceOnUse" style="mask-type:luminance"><path fill="#fff" d="M-200.279-144.898H296.28v385.797h-496.559z"/></mask><g mask="url(#t)"><path fill="#000" d="M18.293 82.492c-.213.532-.034 1.204.473 1.625.476.396 1.099.45 1.55.178a1 1 0 0 1 .158-.073l.251-.082-.034-.109-.249.082a.27.27 0 0 1-.255-.05zm-.27-1.046 2.764 2.293c.213-.532.034-1.205-.472-1.624a1.44 1.44 0 0 0-1.07-.34l-.76-.631c.695-.314 1.585-.192 2.281.386.957.794 1.184 2.148.506 3.023-.677.876-2.002.942-2.958.148-.863-.717-1.132-1.889-.678-2.755a1.9 1.9 0 0 1 .387-.5"/></g><mask id="u" width="498" height="386" x="-201" y="-145" maskUnits="userSpaceOnUse" style="mask-type:luminance"><path fill="#fff" d="M-200.279-144.898H296.28v385.797h-496.559z"/></mask><g mask="url(#u)"><path fill="#000" d="m10.614 71.578-.546-.835c.752-.088 1.568.301 2.067 1.065.688 1.05.518 2.413-.378 3.041-.897.63-2.18.287-2.867-.763-.5-.764-.545-1.693-.188-2.385l.546.836c-.067.366.009.776.24 1.13.431.66 1.24.872 1.806.475.566-.398.676-1.254.244-1.913a1.47 1.47 0 0 0-.924-.651"/></g><mask id="v" width="498" height="386" x="-201" y="-145" maskUnits="userSpaceOnUse" style="mask-type:luminance"><path fill="#fff" d="M-200.279-144.898H296.28v385.797h-496.559z"/></mask><g mask="url(#v)"><path fill="#000" d="M6.326 64.888c-.624.29-.874 1.113-.559 1.84.315.726 1.076 1.08 1.699.79.624-.29.873-1.114.559-1.84-.316-.727-1.076-1.08-1.7-.79m-.339-.78c.988-.46 2.195.106 2.696 1.263s.108 2.468-.879 2.927-2.193-.107-2.695-1.264-.108-2.467.878-2.926"/></g><mask id="w" width="498" height="386" x="-201" y="-145" maskUnits="userSpaceOnUse" style="mask-type:luminance"><path fill="#fff" d="M-200.279-144.898H296.28v385.797h-496.559z"/></mask><g mask="url(#w)"><path fill="#000" d="m3.708 56.804 1.994-.523.202.828-2 .525c-.551.145-.897.68-.77 1.194.188.772.878 1.257 1.541 1.083l1.799-.472.202.828-3.599.944-.202-.828.049-.013a.8.8 0 0 1 .342-.014l.45.08.019-.111-.354-.064a.82.82 0 0 1-.507-.31 2.6 2.6 0 0 1-.443-.948c-.234-.971.34-1.954 1.277-2.2"/></g><mask id="x" width="498" height="386" x="-201" y="-145" maskUnits="userSpaceOnUse" style="mask-type:luminance"><path fill="#fff" d="M-200.279-144.898H296.28v385.797h-496.559z"/></mask><g mask="url(#x)"><path fill="#000" d="m1.443 52.52.18.15.07-.087-.181-.153a.28.28 0 0 1-.1-.191l-.068-.652.616-.068.088.85 3.077-.339.087.85-3.078.34.022.212-.615.067-.022-.212-.308.034c-.567.062-1.084-.459-1.156-1.163L0 51.627l.718-.08.055.532c.023.235.181.41.35.392l.118-.014a.27.27 0 0 1 .202.062"/></g><mask id="y" width="498" height="386" x="-201" y="-145" maskUnits="userSpaceOnUse" style="mask-type:luminance"><path fill="#fff" d="M-200.279-144.898H296.28v385.797h-496.559z"/></mask><g mask="url(#y)"><path fill="#000" d="m4.91 47.983-3.712.064-.014-.854 3.713-.065zm-3.918.067-.826.015-.013-.855.825-.015z"/></g><mask id="z" width="498" height="386" x="-201" y="-145" maskUnits="userSpaceOnUse" style="mask-type:luminance"><path fill="#fff" d="M-200.279-144.898H296.28v385.797h-496.559z"/></mask><g mask="url(#z)"><path fill="#000" d="m.694 38.603 4.905.705-.113.847-1.84-.265c-.677-.097-1.311.464-1.417 1.254-.106.789.358 1.508 1.035 1.605s1.283-.25 1.354-.777c.07-.526-.33-1.019-.895-1.1l.113-.846c.96.138 1.63 1.055 1.497 2.049s-1.11 1.675-2.183 1.521-1.805-1.298-1.637-2.555c.048-.36.166-.69.333-.974a.84.84 0 0 1 .477-.378l.345-.103-.03-.109-.44.13a.8.8 0 0 1-.341.027L.58 39.45z"/></g><mask id="A" width="498" height="386" x="-201" y="-145" maskUnits="userSpaceOnUse" style="mask-type:luminance"><path fill="#fff" d="M-200.279-144.898H296.28v385.797h-496.559z"/></mask><g mask="url(#A)"><path fill="#000" d="m4.581 34.343.753-2.39c-.556-.018-1.101.392-1.302 1.031-.189.601-.018 1.224.385 1.566a1 1 0 0 1 .123.128l.162.214.087-.072-.163-.212a.29.29 0 0 1-.045-.265m1.603-3.02-1.099 3.488c.556.02 1.1-.392 1.302-1.03a1.57 1.57 0 0 0-.07-1.156l.302-.96c.528.562.732 1.469.456 2.347-.381 1.207-1.524 1.904-2.554 1.556s-1.556-1.61-1.176-2.817c.344-1.089 1.308-1.762 2.25-1.627a1.8 1.8 0 0 1 .589.2"/></g><mask id="B" width="498" height="386" x="-201" y="-145" maskUnits="userSpaceOnUse" style="mask-type:luminance"><path fill="#fff" d="M-200.279-144.898H296.28v385.797h-496.559z"/></mask><g mask="url(#B)"><path fill="#000" d="m8.957 24.208 1.816 1.003-.388.754-1.822-1.006c-.502-.277-1.105-.122-1.347.346-.361.704-.165 1.544.438 1.877l1.639.905-.389.755-3.277-1.81.388-.755.045.024a.85.85 0 0 1 .262.229l.28.372.088-.07-.221-.293a.87.87 0 0 1-.174-.582c.025-.34.118-.684.288-1.012a1.726 1.726 0 0 1 2.374-.737"/></g><mask id="C" width="498" height="386" x="-201" y="-145" maskUnits="userSpaceOnUse" style="mask-type:luminance"><path fill="#fff" d="M-200.279-144.898H296.28v385.797h-496.559z"/></mask><g mask="url(#C)"><path fill="#000" d="m13.137 20.53.582.443-.305.43c-.404.571-1.104.752-1.563.402l-1.747-1.326-.122.172-.5-.38.123-.172-.999-.758.488-.689.999.758.488-.69.499.38-.375.53a.27.27 0 0 1-.18.112l-.23.037.017.113.23-.037a.27.27 0 0 1 .204.052l1.593 1.21c.137.104.358.035.493-.155z"/></g><mask id="D" width="498" height="386" x="-201" y="-145" maskUnits="userSpaceOnUse" style="mask-type:luminance"><path fill="#fff" d="M-200.279-144.898H296.28v385.797h-496.559z"/></mask><g mask="url(#D)"><path fill="#000" d="m17.798 8.191 2.364 5.721-.64.54-2.364-5.721z"/></g><mask id="E" width="498" height="386" x="-201" y="-145" maskUnits="userSpaceOnUse" style="mask-type:luminance"><path fill="#fff" d="M-200.279-144.898H296.28v385.797h-496.559z"/></mask><g mask="url(#E)"><path fill="#000" d="M32.269 4.531c.415 1.036.028 2.187-.866 2.573-.895.386-1.92-.053-2.293-.98l.762-.328c.218.545.78.821 1.253.617.474-.204.644-.9.382-1.553-.263-.654-1.052-.936-1.761-.63-.71.306-1.073 1.084-.81 1.738l.712 1.776-.761.328-1.903-4.735.763-.329.495 1.232c.044.11.065.23.063.35l-.01.472.108.003.009-.372a.88.88 0 0 1 .232-.574c.223-.24.501-.44.824-.58 1.131-.487 2.385-.042 2.801.992"/></g><mask id="F" width="498" height="386" x="-201" y="-145" maskUnits="userSpaceOnUse" style="mask-type:luminance"><path fill="#fff" d="M-200.279-144.898H296.28v385.797h-496.559z"/></mask><g mask="url(#F)"><path fill="#000" d="M38.812 2.41c-.267-.506-.884-.784-1.517-.64-.596.137-1.028.605-1.107 1.138a1 1 0 0 1-.044.173l-.095.254.102.042.094-.253a.28.28 0 0 1 .199-.174zm.954.439-3.456.787c.266.506.883.784 1.517.639.403-.091.73-.335.925-.648l.951-.217c-.2.756-.85 1.397-1.72 1.596-1.197.273-2.356-.394-2.588-1.49-.233-1.094.548-2.203 1.745-2.476 1.08-.246 2.128.273 2.493 1.182a1.9 1.9 0 0 1 .133.627"/></g><mask id="G" width="498" height="386" x="-201" y="-145" maskUnits="userSpaceOnUse" style="mask-type:luminance"><path fill="#fff" d="M-200.279-144.898H296.28v385.797h-496.559z"/></mask><g mask="url(#G)"><path fill="#000" d="m53.245.398-2.88 4.912-.618-.39.497-.846L48.682 0l.804.07 1.11 2.896a.9.9 0 0 1 .056.388l-.011.143.109.01.012-.143a.9.9 0 0 1 .116-.372L52.441.328z"/></g><mask id="H" width="498" height="386" x="-201" y="-145" maskUnits="userSpaceOnUse" style="mask-type:luminance"><path fill="#fff" d="M-200.279-144.898H296.28v385.797h-496.559z"/></mask><g mask="url(#H)"><path fill="#000" d="M59.402 3.759c.17-.686-.296-1.405-1.041-1.603-.746-.198-1.487.196-1.658.883-.17.686.295 1.404 1.04 1.602.746.2 1.489-.196 1.659-.882m.8.212c-.27 1.087-1.451 1.712-2.638 1.396s-1.93-1.454-1.661-2.54c.27-1.088 1.451-1.712 2.638-1.395 1.187.315 1.93 1.453 1.66 2.54"/></g><mask id="I" width="498" height="386" x="-201" y="-145" maskUnits="userSpaceOnUse" style="mask-type:luminance"><path fill="#fff" d="M-200.279-144.898H296.28v385.797h-496.559z"/></mask><g mask="url(#I)"><path fill="#000" d="m67.752 5.101-1.536 3.503-.75-.353.02-.048a.9.9 0 0 1 .204-.285l.341-.314-.074-.086-.268.247a.8.8 0 0 1-.55.216 2.4 2.4 0 0 1-.992-.233c-.879-.416-1.262-1.495-.862-2.406l.85-1.941.752.353-.853 1.947c-.236.537-.047 1.15.42 1.37.699.33 1.497.073 1.779-.572L67 4.748z"/></g><mask id="J" width="498" height="386" x="-201" y="-145" maskUnits="userSpaceOnUse" style="mask-type:luminance"><path fill="#fff" d="M-200.279-144.898H296.28v385.797h-496.559z"/></mask><g mask="url(#J)"><path fill="#000" d="m73.522 10.81-.683-.48c.32-.489.234-1.126-.19-1.424-.637-.447-1.464-.333-1.847.253l-1.042 1.592-.683-.48 2.083-3.184.683.48-.028.042a.8.8 0 0 1-.247.247l-.387.25.057.096.305-.196a.8.8 0 0 1 .59-.114c.316.06.63.191.921.394.801.563 1.011 1.693.468 2.524"/></g><mask id="K" width="498" height="386" x="-201" y="-145" maskUnits="userSpaceOnUse" style="mask-type:luminance"><path fill="#fff" d="M-200.279-144.898H296.28v385.797h-496.559z"/></mask><g mask="url(#K)"><path fill="#000" d="M78.071 16.305c-.45.494-1.42.303-2.165-.427-.747-.73-.986-1.722-.537-2.215l.037-.038.604.59a.2.2 0 0 0-.04.035c-.176.193.017.678.431 1.083.415.406.894.578 1.07.385.175-.194-.128-.64-.432-1.084-.3-.44-.617-.812-.691-1.215-.064-.349-.005-.669.194-.888.43-.473 1.351-.296 2.055.393s.927 1.63.496 2.103l-.6-.588c.157-.171-.018-.607-.391-.971-.374-.365-.802-.522-.959-.35s.095.538.392.972c.304.445.616.79.714 1.188.1.404.048.778-.178 1.027"/></g><mask id="L" width="498" height="386" x="-201" y="-145" maskUnits="userSpaceOnUse" style="mask-type:luminance"><path fill="#fff" d="M-200.279-144.898H296.28v385.797h-496.559z"/></mask><g mask="url(#L)"><path fill="#000" d="M83.212 20.984c.332-.462.317-1.16-.074-1.696-.37-.503-.96-.713-1.462-.565a.7.7 0 0 1-.17.031l-.263.017.007.114.261-.016a.27.27 0 0 1 .237.112zm.015 1.083-2.138-2.924c-.332.462-.318 1.159.074 1.695.25.34.6.547.956.6l.589.804c-.748.128-1.582-.216-2.12-.952-.74-1.012-.64-2.381.223-3.058.863-.678 2.162-.407 2.903.605.667.913.65 2.118.006 2.842a1.8 1.8 0 0 1-.493.388"/></g><mask id="M" width="498" height="386" x="-201" y="-145" maskUnits="userSpaceOnUse" style="mask-type:luminance"><path fill="#fff" d="M-200.279-144.898H296.28v385.797h-496.559z"/></mask><g mask="url(#M)"><path fill="#000" d="m85.01 27.122-.633.36-.249-.468c-.329-.62-.192-1.354.308-1.639l3.525-2.008.398.749-3.525 2.008c-.15.086-.183.323-.073.529z"/></g><mask id="N" width="498" height="386" x="-201" y="-145" maskUnits="userSpaceOnUse" style="mask-type:luminance"><path fill="#fff" d="M-200.279-144.898H296.28v385.797h-496.559z"/></mask><g mask="url(#N)"><path fill="#000" d="m89.532 29.653-.216-.093-.042.105.215.093c.067.03.12.085.148.155l.24.608-.573.243-.312-.792-2.866 1.215-.312-.792 2.865-1.214-.079-.198.573-.243.078.198.287-.122c.527-.223 1.165.127 1.425.782l.195.495-.669.284-.195-.495c-.087-.218-.285-.342-.443-.274l-.11.046a.26.26 0 0 1-.21-.001"/></g></g><defs><clipPath id="a"><path fill="#fff" d="M0 0h96v96H0z"/></clipPath></defs></svg>